# xmcd
#
# Track frame offsets: 
#        150
#        17790
#        34785
#        52403
#        70973
#        87378
#        110163
#        130373
#        147520
#        168783
#        186983
#        205223
#        234280
#        250333
#        267483
#        287143
#        305263
#
# Disc length: 4297 seconds
#
# Revision: 0
# Processed by: cddbd v1.5.2PL0 Copyright (c) Steve Scherf et al.
# Submitted via: ExactAudioCopy v0.99pb5
#
DISCID=0910c711
DTITLE=Various Artist - Billboard 1984
DYEAR=2000
DGENRE=Other
TTITLE0=Alphaville - Big in Japan
TTITLE1=Kenny Loggins - Footloose
TTITLE2=The Romantics - Talking in Your Sleep
TTITLE3=Billy Ocean - Caribbean Queen
TTITLE4=Madonna - Like a Virgin
TTITLE5=Foreigner - I Want to Know What Love Is
TTITLE6=Yes - Owner of a Lonely Heart
TTITLE7=Tina Turner - What's Love Got to Do With It
TTITLE8=Thompson Twins - Hold Me Now
TTITLE9=Scandal - The Warrior
TTITLE10=Bruce Springsteen - Dancing in the Dark
TTITLE11=Wham! - Careless Whisper
TTITLE12=Bryan Adams - Summer of '69
TTITLE13=Steve Perry - Oh Sherrie
TTITLE14=Stevie Wonder - I Just Called to Say I Love You
TTITLE15=Van Halen - Jump
TTITLE16=Twisted Sister - We're Not Gonna Take It
EXTD=
EXTT0=
EXTT1=
EXTT2=
EXTT3=
EXTT4=
EXTT5=
EXTT6=
EXTT7=
EXTT8=
EXTT9=
EXTT10=
EXTT11=
EXTT12=
EXTT13=
EXTT14=
EXTT15=
EXTT16=
PLAYORDER=
